# vtk DataFile Version 5.0
femgx sample finite-element block
ASCII
DATASET UNSTRUCTURED_GRID
POINTS 18 double
0 0 0
0 0 1
0 1 0
0 1 1
0 2 0
0 2 1
1 0 0
1 0 1
1 1 0
1 1 1
1 2 0
1 2 1
2 0 0
2 0 1
2 1 0
2 1 1
2 2 0
2 2 1
CELLS 4 36
8 0 6 8 2 1 7 9 3
8 6 12 14 8 7 13 15 9
8 2 8 10 4 3 9 11 5
8 8 14 16 10 9 15 17 11
CELL_TYPES 4
12
12
12
12
POINT_DATA 18
SCALARS temperature double
LOOKUP_TABLE default
20
20
21
21
22
22
24
24
25
25
26
26
28
28
29
29
30
30
CELL_DATA 4
SCALARS stress double
LOOKUP_TABLE default
10
12
14
16
